<?xml version="1.0" encoding="utf-8"?>
<!-- Generator: Adobe Illustrator 16.0.0, SVG Export Plug-In . SVG Version: 6.00 Build 0)  -->
<!DOCTYPE svg PUBLIC "-//W3C//DTD SVG 1.1//EN" "http://www.w3.org/Graphics/SVG/1.1/DTD/svg11.dtd">
<svg version="1.1" id="Layer_1" xmlns="http://www.w3.org/2000/svg" xmlns:xlink="http://www.w3.org/1999/xlink" x="0px" y="0px"
	 width="383.952px" height="383.952px" viewBox="0 0 383.952 383.952" enable-background="new 0 0 383.952 383.952"
	 xml:space="preserve">
<g>
	<path fill-rule="evenodd" clip-rule="evenodd" fill="none" d="M0.791,384.702c0-127.926,0-255.852,0-383.864
		c127.854,0,255.748,0,383.777,0c0,127.896,0,255.88,0,383.864C256.736,384.702,128.784,384.702,0.791,384.702z M191.97,376.479
		c59.487,0,118.976,0.003,178.463-0.003c6.685-0.001,9.332-2.405,9.335-8.83c0.03-68.11,0.008-136.222,0.047-204.333
		c0.002-3.798-1.364-6.666-4.287-9.085c-5.39-4.461-10.547-9.204-15.956-13.64c-1.926-1.579-2.64-3.216-2.633-5.694
		c0.082-30.119,0.055-60.238,0.052-90.356c-0.001-7.79-2.246-10.04-10.026-10.041c-36.117-0.003-72.235-0.032-108.354,0.061
		c-2.714,0.006-4.697-0.773-6.679-2.536c-6.624-5.9-13.34-11.7-20.098-17.449c-12.156-10.341-27.044-10.317-39.168,0.034
		c-6.652,5.679-13.313,11.353-19.826,17.189c-2.183,1.957-4.372,2.773-7.339,2.765c-35.868-0.102-71.736-0.066-107.604-0.065
		c-8.292,0-10.386,2.094-10.387,10.417c-0.004,29.993-0.035,59.987,0.056,89.981c0.008,2.628-0.742,4.374-2.793,6.025
		c-5.157,4.151-9.988,8.712-15.208,12.778c-3.587,2.792-5.025,6.039-5.019,10.59c0.099,67.236,0.067,134.473,0.069,201.709
		c0,8.304,2.163,10.48,10.391,10.481C73.994,376.48,132.982,376.479,191.97,376.479z"/>
	<path fill-rule="evenodd" clip-rule="evenodd" d="M191.97,376.479c-58.988,0-117.976,0.001-176.964,0
		c-8.228-0.001-10.39-2.178-10.391-10.481c-0.001-67.236,0.03-134.473-0.069-201.709c-0.006-4.552,1.432-7.798,5.019-10.59
		c5.22-4.065,10.051-8.627,15.208-12.778c2.051-1.651,2.801-3.397,2.793-6.025c-0.09-29.994-0.06-59.988-0.056-89.981
		c0.001-8.324,2.094-10.417,10.387-10.417c35.868-0.001,71.736-0.037,107.604,0.065c2.967,0.008,5.156-0.809,7.339-2.765
		c6.513-5.837,13.174-11.51,19.826-17.189c12.124-10.351,27.012-10.375,39.168-0.034c6.758,5.749,13.474,11.549,20.098,17.449
		c1.981,1.763,3.965,2.542,6.679,2.536c36.118-0.093,72.236-0.064,108.354-0.061c7.78,0.001,10.025,2.25,10.026,10.041
		c0.003,30.118,0.03,60.238-0.052,90.356c-0.007,2.478,0.707,4.116,2.633,5.694c5.409,4.436,10.566,9.178,15.956,13.64
		c2.923,2.42,4.289,5.288,4.287,9.085c-0.039,68.111-0.017,136.223-0.047,204.333c-0.003,6.425-2.65,8.829-9.335,8.83
		C310.946,376.482,251.457,376.479,191.97,376.479z M42.163,49.391c0,1.81,0,3.281,0,4.751c0,39.98,0.026,79.96-0.068,119.94
		c-0.005,2.37,0.647,3.833,2.435,5.352c29.694,25.244,59.301,50.588,89.034,75.785c1.623,1.374,4.182,2.313,6.309,2.32
		c34.857,0.142,69.715,0.137,104.572,0.009c2.019-0.007,4.459-0.842,5.985-2.138c29.902-25.384,59.72-50.867,89.439-76.465
		c1.335-1.15,2.236-3.562,2.242-5.39c0.125-40.104,0.098-80.21,0.087-120.314c-0.001-1.214-0.124-2.429-0.202-3.85
		C242.104,49.391,142.462,49.391,42.163,49.391z M32.081,361.411c106.965,0,212.966,0,318.968,0c0.181-0.278,0.36-0.557,0.542-0.834
		c-0.635-0.37-1.345-0.651-1.893-1.121c-32.993-28.329-65.953-56.696-99.019-84.939c-1.519-1.297-3.97-2.108-5.991-2.116
		c-34.619-0.127-69.238-0.045-103.857-0.161c-3.474-0.012-6.073,0.904-8.713,3.187c-24.294,21.003-48.704,41.873-73.073,62.789
		C50.259,345.755,41.49,353.315,32.081,361.411z M262.363,264.878c34.13,29.366,67.949,58.464,102.248,87.974
		c0-58.73,0-116.686,0-175.289C330.262,206.896,296.401,235.812,262.363,264.878z M19.743,352.453
		c34.331-29.425,68.175-58.433,102.236-87.626c-34.256-29.199-68.024-57.982-102.236-87.143
		C19.743,236.226,19.743,293.967,19.743,352.453z M172.706,34.21c13.449,0,25.926,0,39.164,0c-4.179-3.548-7.644-6.773-11.402-9.609
		c-5.021-3.788-11.298-3.803-16.357-0.015C180.346,27.407,176.896,30.647,172.706,34.21z M27.265,164.629c0-2.412,0-4.107,0-6.485
		c-1.548,1.264-2.619,2.138-3.947,3.223C24.67,162.485,25.723,163.355,27.265,164.629z"/>
	<path fill-rule="evenodd" clip-rule="evenodd" fill="none" d="M42.163,49.391c100.299,0,199.942,0,299.833,0
		c0.078,1.421,0.201,2.636,0.202,3.85c0.011,40.104,0.038,80.21-0.087,120.314c-0.006,1.828-0.907,4.24-2.242,5.39
		c-29.72,25.598-59.537,51.082-89.439,76.465c-1.526,1.296-3.967,2.131-5.985,2.138c-34.857,0.128-69.715,0.133-104.572-0.009
		c-2.127-0.008-4.687-0.946-6.309-2.32c-29.733-25.196-59.34-50.541-89.034-75.785c-1.787-1.52-2.44-2.982-2.435-5.352
		c0.094-39.98,0.068-79.96,0.068-119.94C42.163,52.672,42.163,51.201,42.163,49.391z M206.696,177.523
		c4.965,7.087,11.654,9.884,19.955,8.507c9.223-1.53,15.682-7.237,20.009-14.994c12.137-21.752,10.719-43.556-2.181-64.281
		c-11.68-18.765-36.793-27.541-60.593-22.404c-21.267,4.59-36.253,17.491-46.033,36.359c-17.05,32.894-9.722,73.499,30.621,90.78
		c19.552,8.375,39.723,5.004,58.703-4.312c1.231-0.604,2.296-1.982,2.944-3.252c1.538-3.018,0.846-5.899-1.505-8.226
		c-2.635-2.607-5.722-2.716-8.981-1.149c-9.992,4.799-20.534,6.823-31.606,6.407c-19.973-0.751-36.38-13.721-41.442-33.056
		c-2.015-7.694-2.171-15.501-1.238-23.423c2.943-24.967,25.516-45.883,50.461-46.535c19.878-0.519,34.889,8.628,40.748,25.473
		c1.819,5.232,2.823,10.917,3.163,16.459c0.629,10.275-1.742,19.909-8.974,27.725c-2.487,2.688-5.691,5.339-9.515,3.526
		c-3.6-1.707-3.591-5.827-3.433-9.269c0.206-4.478,1.002-8.93,1.564-13.389c1.094-8.672,2.318-17.331,3.265-26.019
		c0.732-6.719-4.573-11.316-10.047-8.719c-1.886,0.896-3.282,2.826-5.112,4.473c-6.016-4.255-13.052-6.108-20.851-4.5
		c-16.312,3.364-27.437,16.502-30.023,35.484c-2.087,15.313,6.716,29.714,21.293,34.135
		C188.175,186.445,197.61,183.792,206.696,177.523z"/>
	<path fill-rule="evenodd" clip-rule="evenodd" fill="none" d="M32.081,361.411c9.409-8.096,18.178-15.656,26.964-23.196
		c24.369-20.916,48.778-41.786,73.073-62.789c2.64-2.282,5.239-3.198,8.713-3.187c34.619,0.116,69.238,0.034,103.857,0.161
		c2.021,0.008,4.473,0.819,5.991,2.116c33.065,28.243,66.025,56.61,99.019,84.939c0.548,0.47,1.258,0.751,1.893,1.121
		c-0.182,0.277-0.361,0.556-0.542,0.834C245.047,361.411,139.046,361.411,32.081,361.411z"/>
	<path fill-rule="evenodd" clip-rule="evenodd" fill="none" d="M262.363,264.878c34.038-29.066,67.898-57.982,102.248-87.315
		c0,58.603,0,116.558,0,175.289C330.313,323.342,296.493,294.244,262.363,264.878z"/>
	<path fill-rule="evenodd" clip-rule="evenodd" fill="none" d="M19.743,352.453c0-58.486,0-116.228,0-174.769
		c34.212,29.161,67.98,57.944,102.236,87.143C87.918,294.021,54.074,323.028,19.743,352.453z"/>
	<path fill-rule="evenodd" clip-rule="evenodd" fill="none" d="M172.706,34.21c4.19-3.563,7.64-6.803,11.405-9.624
		c5.059-3.788,11.336-3.773,16.357,0.015c3.759,2.835,7.224,6.061,11.402,9.609C198.632,34.21,186.155,34.21,172.706,34.21z"/>
	<path fill-rule="evenodd" clip-rule="evenodd" fill="none" d="M27.265,164.629c-1.542-1.274-2.595-2.144-3.947-3.262
		c1.328-1.085,2.398-1.959,3.947-3.223C27.265,160.522,27.265,162.217,27.265,164.629z"/>
	<path fill-rule="evenodd" clip-rule="evenodd" d="M206.696,177.523c-9.086,6.269-18.521,8.921-28.807,5.802
		c-14.577-4.421-23.38-18.822-21.293-34.135c2.586-18.982,13.711-32.121,30.023-35.484c7.799-1.608,14.835,0.245,20.851,4.5
		c1.83-1.647,3.227-3.577,5.112-4.473c5.474-2.597,10.779,2,10.047,8.719c-0.946,8.688-2.171,17.347-3.265,26.019
		c-0.563,4.459-1.358,8.912-1.564,13.389c-0.158,3.442-0.167,7.562,3.433,9.269c3.823,1.813,7.027-0.838,9.515-3.526
		c7.231-7.815,9.603-17.45,8.974-27.725c-0.34-5.542-1.344-11.227-3.163-16.459c-5.859-16.844-20.87-25.992-40.748-25.473
		c-24.945,0.652-47.518,21.568-50.461,46.535c-0.934,7.922-0.777,15.729,1.238,23.423c5.063,19.335,21.47,32.305,41.442,33.056
		c11.072,0.416,21.614-1.608,31.606-6.407c3.26-1.566,6.347-1.458,8.981,1.149c2.351,2.326,3.043,5.208,1.505,8.226
		c-0.648,1.27-1.713,2.647-2.944,3.252c-18.979,9.315-39.151,12.687-58.703,4.312c-40.343-17.281-47.671-57.886-30.621-90.78
		c9.78-18.869,24.766-31.77,46.033-36.359c23.8-5.137,48.914,3.639,60.593,22.404c12.899,20.725,14.317,42.529,2.181,64.281
		c-4.327,7.757-10.786,13.464-20.009,14.994C218.351,187.407,211.661,184.61,206.696,177.523z M186.344,169.61
		c8.955-0.061,16.029-6.072,17.352-14.88c0.74-4.932,1.327-9.888,1.898-14.844c0.106-0.923,0.072-2.037-0.349-2.821
		c-5.248-9.811-14.964-12.046-23.86-5.369c-7.867,5.905-10.731,14.294-10.249,23.704
		C171.543,163.324,178.787,169.661,186.344,169.61z"/>
	<path fill-rule="evenodd" clip-rule="evenodd" fill="none" d="M186.344,169.61c-7.557,0.051-14.8-6.286-15.207-14.211
		c-0.482-9.41,2.382-17.799,10.249-23.704c8.896-6.677,18.612-4.441,23.86,5.369c0.421,0.784,0.455,1.898,0.349,2.821
		c-0.571,4.956-1.158,9.912-1.898,14.844C202.373,163.538,195.299,169.549,186.344,169.61z"/>
</g>
</svg>
